<svg xmlns="http://www.w3.org/2000/svg" width="24" height="24" fill="currentColor" viewBox="0 0 24 24">
  <path d="M5.8 21.8c-.85 0-1.73-.254-2.638-.762-.908-.509-1.695-1.28-2.362-2.313.6 0 1.133-.138 1.6-.413.467-.274.733-.762.8-1.462.083-.9.454-1.67 1.112-2.313.659-.641 1.488-.962 2.488-.962s1.854.354 2.562 1.063a3.492 3.492 0 0 1 1.063 2.562c0 1.283-.45 2.37-1.35 3.262-.9.892-1.992 1.338-3.275 1.338Zm6.45-6.525L8.725 11.75l10.1-10.1a.977.977 0 0 1 .688-.287.93.93 0 0 1 .712.287l2.125 2.125c.2.2.3.433.3.7 0 .267-.1.5-.3.7l-10.1 10.1Z"/>
</svg>
