<svg xmlns="http://www.w3.org/2000/svg" width="24" height="24" fill="currentColor" viewBox="0 0 24 24">
  <path d="m17.15 20.7-6.05-6.1c-.333.133-.67.233-1.012.3A5.67 5.67 0 0 1 9 15c-1.667 0-3.083-.583-4.25-1.75C3.583 12.083 3 10.667 3 9c0-.6.083-1.17.25-1.713a6.58 6.58 0 0 1 .7-1.537L7.6 9.4l1.8-1.8-3.65-3.65a6.58 6.58 0 0 1 1.537-.7A5.79 5.79 0 0 1 9 3c1.667 0 3.083.583 4.25 1.75C14.417 5.917 15 7.333 15 9c0 .383-.033.746-.1 1.088a5.677 5.677 0 0 1-.3 1.012l6.1 6.05c.2.2.3.442.3.725s-.1.525-.3.725l-2.1 2.1c-.2.2-.442.3-.725.3a.988.988 0 0 1-.725-.3Z"/>
</svg>
