<svg xmlns="http://www.w3.org/2000/svg" width="24" height="24" fill="currentColor" viewBox="0 0 24 24">
  <path d="m15.5 16.9 1.4-1.4a.48.48 0 0 0 0-.7l-3.4-3.425c.067-.183.117-.367.15-.55a3.52 3.52 0 0 0 .05-.625c0-.95-.337-1.762-1.012-2.437A3.323 3.323 0 0 0 10.25 6.75a3.31 3.31 0 0 0-.85.112c-.283.075-.558.18-.825.313l2.35 2.35-1.4 1.4-2.35-2.35a4.303 4.303 0 0 0-.313.825 3.31 3.31 0 0 0-.112.85c0 .95.338 1.762 1.013 2.438A3.323 3.323 0 0 0 10.2 13.7a3.287 3.287 0 0 0 1.175-.2l3.425 3.4a.48.48 0 0 0 .7 0ZM12 22a9.738 9.738 0 0 1-3.9-.788 10.099 10.099 0 0 1-3.175-2.137c-.9-.9-1.612-1.958-2.137-3.175A9.738 9.738 0 0 1 2 12a9.74 9.74 0 0 1 .788-3.9 10.099 10.099 0 0 1 2.137-3.175c.9-.9 1.958-1.612 3.175-2.137A9.738 9.738 0 0 1 12 2a9.74 9.74 0 0 1 3.9.788 10.098 10.098 0 0 1 3.175 2.137c.9.9 1.613 1.958 2.137 3.175A9.738 9.738 0 0 1 22 12a9.738 9.738 0 0 1-.788 3.9 10.098 10.098 0 0 1-2.137 3.175c-.9.9-1.958 1.613-3.175 2.137A9.738 9.738 0 0 1 12 22Z"/>
</svg>
