<svg xmlns="http://www.w3.org/2000/svg" width="24" height="24" fill="currentColor" viewBox="0 0 24 24">
  <path d="m19.225 21.85-5.8-5.8 2.625-2.65 5.8 5.8-2.625 2.65Zm-14.45 0-2.65-2.65 7.225-7.225L7.575 10.2l-.7.7-.925-.9v1.7l-.875.875-3.75-3.75.875-.875h1.7L3 7.025l3.825-3.8c.367-.367.78-.638 1.238-.813.458-.175.92-.262 1.387-.262.467 0 .933.092 1.4.275.467.183.883.45 1.25.8L9.65 5.65l1.225 1.225-.7.7 1.8 1.8L14.2 7.15a4.63 4.63 0 0 1-.125-.538 3.283 3.283 0 0 1-.05-.562c0-1.083.375-2.004 1.125-2.762.75-.759 1.667-1.138 2.75-1.138.333 0 .65.038.95.113.3.075.6.204.9.387l-2.475 2.5L18.8 6.675l2.5-2.5c.2.283.342.583.425.9.083.317.125.642.125.975 0 1.083-.388 2-1.163 2.75-.774.75-1.704 1.125-2.787 1.125-.183 0-.362-.017-.537-.05a5.11 5.11 0 0 1-.513-.125L4.775 21.85Z"/>
</svg>
