<svg xmlns="http://www.w3.org/2000/svg" width="24" height="24" fill="currentColor" viewBox="0 0 24 24">
  <g clip-path="url(#a)">
    <path d="M4.925 11.625 4.6 10a5.498 5.498 0 0 1-.443-.213 3.265 3.265 0 0 1-.407-.262L2.2 10 .9 7.775 2.15 6.7a2.183 2.183 0 0 1 0-.925L.9 4.7l1.3-2.25 1.55.5c.133-.1.269-.187.407-.262.138-.074.285-.145.443-.213L4.925.85H7.55l.325 1.625a5.5 5.5 0 0 1 .443.213c.138.075.274.162.407.262l1.55-.5 1.3 2.25-1.25 1.075a2.185 2.185 0 0 1 0 .925l1.25 1.075-1.3 2.225-1.55-.475c-.133.1-.269.187-.407.262a5.496 5.496 0 0 1-.443.213l-.325 1.625H4.925ZM6.23 8.05c.497 0 .924-.179 1.282-.536a1.75 1.75 0 0 0 .538-1.287c0-.501-.179-.927-.536-1.277a1.773 1.773 0 0 0-1.287-.525 1.73 1.73 0 0 0-1.277.53c-.35.354-.525.779-.525 1.275 0 .497.177.924.53 1.282.354.359.779.538 1.275.538ZM15 23.775l-.45-2.1a5.4 5.4 0 0 1-1.15-.488 4.154 4.154 0 0 1-.975-.762l-2 .7-1.4-2.4 1.6-1.4a5.34 5.34 0 0 1-.15-1.25c0-.417.05-.833.15-1.25l-1.6-1.4 1.4-2.4 2 .7c.283-.3.608-.554.975-.762a5.35 5.35 0 0 1 1.15-.488l.45-2.1h2.8l.45 2.1c.4.117.78.28 1.137.488.359.208.68.462.963.762l2-.7 1.4 2.4-1.6 1.4c.1.417.15.833.15 1.25 0 .417-.05.833-.15 1.25l1.6 1.4-1.4 2.4-2-.7c-.283.3-.604.554-.963.762a5.066 5.066 0 0 1-1.137.488l-.45 2.1H15Zm1.4-5c.75 0 1.383-.262 1.9-.787a2.625 2.625 0 0 0 .775-1.913c0-.75-.26-1.387-.78-1.912a2.568 2.568 0 0 0-1.895-.788c-.75 0-1.387.262-1.912.787a2.604 2.604 0 0 0-.788 1.913c0 .75.263 1.387.788 1.913a2.604 2.604 0 0 0 1.912.787Z"/>
  </g>
  <defs>
    <clipPath id="a">
      <path d="M0 0h24v24H0z"/>
    </clipPath>
  </defs>
</svg>
