<svg xmlns="http://www.w3.org/2000/svg" width="24" height="24" fill="currentColor" viewBox="0 0 24 24">
  <path d="M12 22.85c-1.48 0-2.88-.288-4.198-.863A11.117 11.117 0 0 1 4.35 19.65a11.115 11.115 0 0 1-2.338-3.453A10.389 10.389 0 0 1 1.15 12c0-1.5.287-2.907.862-4.224a10.913 10.913 0 0 1 2.363-3.45 11.19 11.19 0 0 1 3.498-2.325 10.785 10.785 0 0 1 4.267-.85c1.44 0 2.806.25 4.098.75a10.99 10.99 0 0 1 3.412 2.075 9.906 9.906 0 0 1 2.338 3.13A8.917 8.917 0 0 1 22.85 11c0 2.017-.596 3.662-1.788 4.938-1.191 1.274-2.729 1.912-4.612 1.912h-1.275a.27.27 0 0 0-.2.075.27.27 0 0 0-.075.2c0 .167.075.337.225.512.15.175.225.463.225.863 0 .967-.32 1.767-.963 2.4-.641.633-1.437.95-2.387.95ZM6.8 13c.433 0 .792-.142 1.075-.425.283-.283.425-.642.425-1.075 0-.433-.142-.792-.425-1.075C7.592 10.142 7.233 10 6.8 10c-.433 0-.792.142-1.075.425-.283.283-.425.642-.425 1.075 0 .433.142.792.425 1.075.283.283.642.425 1.075.425Zm2.85-3.775c.433 0 .792-.142 1.075-.425.283-.283.425-.642.425-1.075 0-.433-.142-.792-.425-1.075-.283-.283-.642-.425-1.075-.425-.433 0-.792.142-1.075.425-.283.283-.425.642-.425 1.075 0 .433.142.792.425 1.075.283.283.642.425 1.075.425Zm4.7 0c.433 0 .792-.142 1.075-.425.283-.283.425-.642.425-1.075 0-.433-.142-.792-.425-1.075-.283-.283-.642-.425-1.075-.425-.433 0-.792.142-1.075.425-.283.283-.425.642-.425 1.075 0 .433.142.792.425 1.075.283.283.642.425 1.075.425ZM17.125 13c.433 0 .792-.142 1.075-.425.283-.283.425-.642.425-1.075 0-.433-.142-.792-.425-1.075-.283-.283-.642-.425-1.075-.425-.433 0-.792.142-1.075.425-.283.283-.425.642-.425 1.075 0 .433.142.792.425 1.075.283.283.642.425 1.075.425Z"/>
</svg>
