<svg xmlns="http://www.w3.org/2000/svg" width="24" height="24" fill="currentColor" viewBox="0 0 24 24">
  <g clip-path="url(#a)">
    <path d="M6.3 24c-.883 0-1.63-.304-2.238-.913-.608-.608-.912-1.354-.912-2.237v-9.3c0-.883.304-1.63.912-2.238C4.671 8.704 5.417 8.4 6.3 8.4h2.125v3.15H6.3v9.3h11.4v-9.3h-2.125V8.4H17.7c.883 0 1.63.304 2.238.912.608.609.912 1.355.912 2.238v9.3c0 .883-.304 1.63-.913 2.237-.608.609-1.354.913-2.237.913H6.3Zm4.125-7.125V6l-1.6 1.6-2.2-2.2L12 0l5.375 5.4-2.2 2.2-1.6-1.6v10.875h-3.15Z"/>
  </g>
  <defs>
    <clipPath id="a">
      <path d="M0 0h24v24H0z"/>
    </clipPath>
  </defs>
</svg>
