<svg xmlns="http://www.w3.org/2000/svg" width="24" height="24" fill="currentColor" viewBox="0 0 24 24">
  <path d="M10.8 17.2h2.4v-4h4v-2.4h-4v-4h-2.4v4h-4v2.4h4v4Zm1.2 5.65c-1.517 0-2.933-.284-4.25-.852a10.928 10.928 0 0 1-3.435-2.313 10.927 10.927 0 0 1-2.313-3.435c-.568-1.317-.852-2.733-.852-4.25s.284-2.933.852-4.25a10.927 10.927 0 0 1 2.313-3.435A10.927 10.927 0 0 1 7.75 2.002c1.317-.568 2.733-.852 4.25-.852s2.933.284 4.25.852a10.927 10.927 0 0 1 3.435 2.313 10.928 10.928 0 0 1 2.313 3.435c.568 1.317.852 2.733.852 4.25s-.284 2.933-.852 4.25a10.928 10.928 0 0 1-2.313 3.435 10.928 10.928 0 0 1-3.435 2.313c-1.317.568-2.733.852-4.25.852Z"/>
</svg>
