<svg xmlns="http://www.w3.org/2000/svg" width="24" height="24" fill="currentColor" viewBox="0 0 24 24">
  <path d="M12 16c1.25 0 2.313-.438 3.188-1.313.874-.874 1.312-1.937 1.312-3.187 0-1.25-.438-2.312-1.313-3.187C14.313 7.438 13.25 7 12 7c-1.25 0-2.312.438-3.187 1.313S7.5 10.25 7.5 11.5c0 1.25.438 2.313 1.313 3.188C9.688 15.562 10.75 16 12 16Zm.004-2.325a2.108 2.108 0 0 1-1.541-.633 2.086 2.086 0 0 1-.638-1.538c0-.602.211-1.117.633-1.541a2.086 2.086 0 0 1 1.538-.638c.602 0 1.117.211 1.541.633.425.422.638.935.638 1.538 0 .602-.211 1.117-.633 1.541a2.086 2.086 0 0 1-1.538.638Zm-.004 6.1c-2.633 0-5.012-.762-7.137-2.287S1.192 13.966.225 11.5c.967-2.467 2.513-4.462 4.638-5.987C6.988 3.988 9.367 3.225 12 3.225s5.012.763 7.137 2.288 3.671 3.52 4.638 5.987c-.967 2.467-2.512 4.463-4.637 5.988-2.126 1.524-4.505 2.287-7.138 2.287Z"/>
</svg>
