<svg xmlns="http://www.w3.org/2000/svg" width="24" height="24" fill="currentColor" viewBox="0 0 24 24">
  <path d="m19.5 22.9-3.75-3.725c-.55.2-1.137.35-1.762.45-.625.1-1.288.15-1.988.15-2.633 0-5.004-.746-7.112-2.237C2.779 16.046 1.225 14.033.225 11.5.558 10.65 1 9.817 1.55 9c.55-.817 1.15-1.558 1.8-2.225L.7 4.125 2.375 2.45l18.775 18.8-1.65 1.65ZM12 16c.1 0 .196-.004.287-.012.092-.009.188-.03.288-.063l-5.05-5c-.017.1-.025.2-.025.3v.275c0 1.25.438 2.313 1.313 3.188C9.688 15.562 10.75 16 12 16Zm8.1.725-3.85-3.85c.083-.2.146-.433.188-.7.041-.267.062-.492.062-.675 0-1.25-.438-2.313-1.313-3.188C14.313 7.439 13.25 7 12 7c-.217 0-.442.02-.675.063a4.355 4.355 0 0 0-.7.187L7.45 4.075a10.696 10.696 0 0 1 2.2-.638A13.18 13.18 0 0 1 12 3.225c2.617 0 4.98.737 7.087 2.212 2.109 1.475 3.671 3.496 4.688 6.063a12.298 12.298 0 0 1-1.563 2.887 13.75 13.75 0 0 1-2.112 2.338Zm-6.4-6.4-.7-.7a.702.702 0 0 1 .3.012.46.46 0 0 1 .225.163.9.9 0 0 1 .15.262c.033.092.042.18.025.263Z"/>
</svg>
